<svg xmlns="http://www.w3.org/2000/svg" width="1000" height="1000" viewBox="0 0 1000 1000" fill="none">
<g clip-path="url(#clip0_3139_16370)">
<path d="M500 1000C776.142 1000 1000 776.142 1000 500C1000 223.858 776.142 0 500 0C223.858 0 0 223.858 0 500C0 776.142 223.858 1000 500 1000Z" fill="#3E73C4"/>
<path d="M625.688 566.375C625.688 500 585.688 477.25 505.688 467.75C448.563 460.156 437.156 445 437.156 418.438C437.156 391.875 456.219 374.813 494.281 374.813C528.563 374.813 547.625 386.187 557.125 414.656C558.115 417.409 559.925 419.792 562.311 421.485C564.696 423.178 567.544 424.1 570.469 424.125H600.938C602.698 424.172 604.449 423.861 606.085 423.211C607.721 422.561 609.208 421.585 610.455 420.344C611.703 419.102 612.686 417.619 613.343 415.986C614.001 414.353 614.32 412.604 614.281 410.844V408.969C610.558 388.372 600.136 369.581 584.636 355.516C569.135 341.451 549.423 332.898 528.563 331.187V285.688C528.563 278.094 522.844 272.406 513.344 270.5H484.75C477.156 270.5 471.438 276.188 469.531 285.688V329.312C412.375 336.875 376.219 374.812 376.219 422.25C376.219 484.813 414.281 509.469 494.281 518.969C547.625 528.438 564.75 539.844 564.75 570.188C564.75 600.5 538.094 621.375 501.906 621.375C452.375 621.375 435.25 600.531 429.531 572.062C427.656 564.5 421.906 560.687 416.188 560.687H383.813C382.055 560.645 380.308 560.959 378.675 561.611C377.043 562.263 375.56 563.239 374.315 564.48C373.071 565.722 372.091 567.203 371.436 568.834C370.78 570.465 370.462 572.211 370.5 573.969V575.844C378.094 623.281 408.594 657.406 471.438 666.906V712.438C471.438 720 477.156 725.719 486.656 727.594H515.25C522.844 727.594 528.563 721.906 530.469 712.438V666.875C587.625 657.406 625.688 617.562 625.688 566.344V566.375Z" fill="white"/>
<path d="M402.875 765.531C254.312 712.406 178.125 547.406 233.375 401.375C261.937 321.687 324.781 261.031 402.875 232.562C410.5 228.781 414.281 223.094 414.281 213.594V187.031C414.281 179.469 410.5 173.781 402.875 171.875C400.969 171.875 397.156 171.875 395.25 173.75C352.388 187.135 312.598 208.867 278.169 237.693C243.741 266.519 215.355 301.871 194.645 341.713C173.935 381.555 161.312 425.1 157.5 469.841C153.689 514.582 158.765 559.635 172.437 602.406C206.687 708.656 288.594 790.219 395.25 824.344C402.875 828.125 410.5 824.344 412.375 816.75C414.281 814.875 414.281 812.937 414.281 809.156V782.594C414.281 776.906 408.594 769.344 402.875 765.531ZM604.75 173.781C597.125 169.969 589.5 173.781 587.625 181.344C585.719 183.25 585.719 185.156 585.719 188.938V215.5C585.719 223.094 591.406 230.656 597.125 234.469C745.687 287.594 821.875 452.594 766.625 598.625C738.062 678.313 675.219 738.969 597.125 767.438C589.5 771.219 585.719 776.906 585.719 786.406V812.969C585.719 820.531 589.5 826.219 597.125 828.125C599.031 828.125 602.844 828.125 604.75 826.25C647.611 812.865 687.402 791.134 721.83 762.307C756.259 733.481 784.645 698.129 805.355 658.287C826.064 618.445 838.688 574.9 842.5 530.159C846.311 485.418 841.234 440.365 827.562 397.594C793.312 289.469 709.5 207.906 604.75 173.781Z" fill="white"/>
<circle cx="783.125" cy="783.125" r="216.875" fill="#003057"/>
<path d="M782.519 671.25H828.463C834.731 671.25 840.339 674.89 842.527 680.378L882.854 781.527C883.165 782.307 883.169 783.166 882.864 783.948L882.638 784.529L882.636 784.535L842.479 887.792C840.323 893.336 834.685 897.026 828.373 897.026H782.436C779.853 897.026 778.042 894.644 778.894 892.365L820.301 781.527L778.995 675.96C778.1 673.672 779.913 671.25 782.519 671.25Z" fill="#D631B9"/>
<path d="M662.588 671.25H708.532C714.8 671.25 720.408 674.89 722.596 680.378L762.922 781.527C763.234 782.307 763.237 783.166 762.933 783.948L762.707 784.529L762.705 784.535L722.548 887.792C720.392 893.336 714.754 897.026 708.442 897.026H662.505C659.922 897.026 658.111 894.644 658.963 892.365L700.37 781.527L659.064 675.96C658.169 673.672 659.981 671.25 662.588 671.25Z" fill="#D631B9"/>
<path d="M813.695 759.965H748.838V808.896H813.695L824.292 783.731L813.695 759.965Z" fill="#D631B9"/>
<path d="M809.043 671.25H854.986C861.254 671.25 866.862 674.89 869.05 680.378L909.377 781.527C909.688 782.307 909.692 783.166 909.388 783.948L909.162 784.529L909.159 784.535L869.002 887.792C866.846 893.336 861.209 897.026 854.896 897.026H808.96C806.376 897.026 804.566 894.644 805.417 892.365L846.824 781.527L805.519 675.96C804.624 673.672 806.436 671.25 809.043 671.25Z" fill="white"/>
<path d="M689.111 671.25H735.055C741.323 671.25 746.931 674.89 749.119 680.378L789.446 781.527C789.757 782.307 789.761 783.166 789.456 783.948L789.23 784.529L789.228 784.535L749.071 887.792C746.915 893.336 741.278 897.026 734.965 897.026H689.029C686.445 897.026 684.635 894.644 685.486 892.365L726.893 781.527L685.588 675.96C684.693 673.672 686.505 671.25 689.111 671.25Z" fill="white"/>
<path d="M840.218 759.965H775.361V808.896H840.218L850.816 783.731L840.218 759.965Z" fill="white"/>
</g>
<defs>
<clipPath id="clip0_3139_16370">
<rect width="1000" height="1000" fill="white"/>
</clipPath>
</defs>
</svg>